PathFileType	4	(X/Y/Z)	SUBJ63_1_walk_RCNL2025.trc
DataRate	CameraRate	NumFrames	NumMarkers	Units	OrigDataRate	OrigDataStartFrame	OrigNumFrames
100	100	12	25	mm	100	60	238
Frame#	Time	R_Shoulder			L_Shoulder			C7			J_Notch			R_Elbow			L_Elbow			R_Wrist			L_Wrist			R_Asis			L_Asis			Sacral			Thoracic			Sternum			R_Thigh_Lateral			R_Knee_Lateral			R_Shank_Lateral			R_Ankle_Lateral			R_Heel			R_Toe			L_Thigh_Lateral			L_Knee_Lateral			L_Shank_Lateral			L_Ankle_Lateral			L_Heel			L_Toe		
		X1	Y1	Z1	X2	Y2	Z2	X3	Y3	Z3	X4	Y4	Z4	X5	Y5	Z5	X6	Y6	Z6	X7	Y7	Z7	X8	Y8	Z8	X9	Y9	Z9	X10	Y10	Z10	X11	Y11	Z11	X12	Y12	Z12	X13	Y13	Z13	X14	Y14	Z14	X15	Y15	Z15	X16	Y16	Z16	X17	Y17	Z17	X18	Y18	Z18	X19	Y19	Z19	X20	Y20	Z20	X21	Y21	Z21	X22	Y22	Z22	X23	Y23	Z23	X24	Y24	Z24	X25	Y25	Z25
60	0.59000000	-147.377029	1266.819214	-162.986038	-198.706909	1258.403687	-494.682068	-247.613190	1328.085693	-322.765045	-133.281906	1217.183472	-334.746979	-122.048904	998.208862	-44.432526	-356.557556	995.966736	-566.269104	9.350882	810.305878	-31.288408	-412.116089	799.195648	-651.879333	-147.087219	817.632202	-181.773956	-102.828690	818.011658	-433.006622	-346.314667	827.811218	-352.821533	-337.812714	1151.668945	-308.709351	-89.147614	1036.364380	-329.052734	-331.233734	503.112305	-146.417221	-349.712036	448.853790	-195.241699	-463.736938	301.414673	-165.655899	-568.859680	122.981644	-255.577438	-598.917908	150.275314	-308.077820	-479.349548	46.590302	-263.812988	-39.988243	460.973389	-511.989502	-38.956490	438.772614	-443.895294	3.034229	253.659912	-474.691833	34.336231	60.696224	-397.368347	-14.640296	42.747093	-348.865753	149.745224	69.306564	-385.135986
61	0.60000000	-132.203400	1266.261597	-163.733185	-181.450333	1257.490356	-495.928558	-231.566833	1327.304077	-324.335999	-116.861870	1216.641724	-335.581207	-108.323959	997.595642	-44.580860	-339.737640	995.175720	-566.903259	22.948667	809.715973	-30.355329	-398.277313	798.976990	-651.177246	-130.869492	816.283264	-182.670242	-85.591515	818.049988	-433.498383	-329.563141	826.133850	-353.421448	-321.564331	1150.833862	-310.530701	-72.315094	1036.036255	-329.412659	-312.272644	501.190308	-144.160675	-329.588531	446.448792	-192.252090	-448.668030	303.860840	-162.556335	-560.446350	130.255997	-252.792282	-588.362854	160.091278	-305.069122	-477.022430	47.275578	-263.317139	-19.693422	462.383301	-511.091431	-20.800758	438.971466	-443.136993	16.068171	252.353073	-473.217804	38.328049	58.756798	-396.359863	-12.975277	43.882408	-348.188324	153.910965	61.884663	-382.814056
62	0.61000000	-117.007965	1266.039795	-164.446289	-163.998062	1256.882446	-497.134521	-215.427475	1326.870361	-325.905823	-100.406738	1216.435181	-336.394104	-94.938667	997.184753	-44.808155	-322.425568	994.547974	-567.655762	35.786943	809.035706	-29.428372	-383.137329	798.619598	-650.465179	-114.676125	814.996033	-183.760666	-68.465363	818.191589	-434.151581	-312.954224	824.638245	-353.939911	-305.296143	1150.370239	-312.388763	-55.442833	1036.065552	-329.813141	-291.753296	498.829987	-141.705231	-307.795837	443.636993	-189.055496	-431.634766	306.250580	-159.207458	-550.328369	138.366852	-249.837204	-575.723267	170.711014	-301.909790	-473.860931	48.733513	-262.583649	-0.853553	463.564758	-510.602295	-3.627620	439.300262	-442.721802	28.807016	251.409302	-472.019135	41.566784	57.406574	-395.670135	-11.756871	45.290092	-347.851257	157.174255	55.450294	-380.985168
63	0.62000000	-101.771500	1266.143555	-165.128372	-146.406921	1256.586182	-498.253143	-199.234421	1326.789551	-327.419922	-83.964706	1216.542358	-337.148376	-81.874619	996.992554	-45.111698	-304.659149	994.087402	-568.507568	47.875549	808.272919	-28.536907	-366.657928	798.099945	-649.785431	-98.607346	813.821045	-185.011520	-51.550430	818.491394	-434.943909	-296.553253	823.394104	-354.385651	-289.068878	1150.294067	-314.203735	-38.622581	1036.406006	-330.208984	-269.622345	496.070129	-139.075668	-284.352844	440.476105	-185.735580	-412.446320	308.494812	-155.680542	-538.296326	147.220779	-246.758530	-560.891785	181.961945	-298.633972	-469.453522	51.187706	-261.461578	16.477924	464.443268	-510.465973	12.439490	439.691528	-442.593689	41.202763	250.692337	-471.028534	44.152199	56.576492	-395.166901	-10.745353	46.721169	-347.761810	159.641846	50.236889	-379.498566
64	0.63000000	-86.493553	1266.547607	-165.778580	-128.744797	1256.610840	-499.238068	-183.037308	1327.053955	-328.826111	-67.579170	1216.938232	-337.810394	-69.113098	997.024719	-45.486500	-286.478577	993.789185	-569.431152	59.240211	807.438782	-27.712358	-348.835159	797.403656	-649.162445	-82.745804	812.814270	-186.375198	-34.920387	819.017151	-435.839111	-280.413116	822.501038	-354.774780	-272.936218	1150.608765	-315.901489	-21.952963	1037.002686	-330.553894	-245.897247	493.014069	-136.328323	-259.339996	437.078247	-182.397858	-391.007965	310.518890	-152.080414	-524.123291	156.613220	-243.637985	-543.817322	193.531052	-295.332825	-463.256500	54.757809	-259.798065	32.443691	465.010895	-510.540100	27.272057	440.050110	-442.663269	52.942753	250.034821	-470.187225	46.164307	56.148449	-394.754303	-9.871188	48.021481	-347.808167	161.430405	46.280674	-378.226715
65	0.64000000	-71.200218	1267.221924	-166.380280	-111.082047	1256.962036	-500.047516	-166.884720	1327.651733	-330.081421	-51.286694	1217.599976	-338.349396	-56.639637	997.275513	-45.924431	-267.924896	993.639526	-570.395386	69.923214	806.550446	-26.983259	-329.700394	796.525208	-648.603149	-67.147545	812.037598	-187.792496	-18.609243	819.827271	-436.789185	-264.571014	822.071594	-355.142029	-256.938446	1151.308105	-317.428558	-5.524379	1037.803345	-330.802551	-220.690445	489.845886	-133.551239	-232.903198	433.622833	-179.153275	-367.343567	312.275055	-148.525284	-507.606049	166.227478	-240.571198	-524.509766	204.972809	-292.145020	-454.638184	59.398514	-257.459045	47.159092	465.309631	-510.683319	40.737774	440.286469	-442.845245	63.563587	249.329330	-469.491913	47.679672	55.992874	-394.389130	-9.125830	49.111351	-347.907593	162.665756	43.473610	-377.112366
66	0.65000000	-55.940891	1268.140259	-166.896378	-93.480743	1257.639160	-500.648926	-150.816467	1328.573730	-331.152618	-35.118519	1218.514404	-338.735321	-44.447693	997.729370	-46.414402	-249.037384	993.621582	-571.371521	79.980072	805.634613	-26.370986	-309.312317	795.469666	-648.098480	-51.838818	811.563293	-189.194214	-2.616773	820.953247	-437.738495	-249.044159	822.209167	-355.545837	-241.100723	1152.380127	-318.761383	10.593342	1038.769287	-330.912903	-194.223663	486.826263	-130.861313	-205.249527	430.355225	-176.109253	-341.590088	313.733185	-145.130188	-488.615479	175.664688	-237.651184	-503.048950	215.760239	-289.233307	-442.962372	64.890244	-254.344925	60.542801	465.372070	-510.828491	52.731030	440.347168	-443.078461	72.659607	248.560547	-468.981140	48.771484	55.992359	-394.059998	-8.513081	49.965588	-348.014801	163.466858	41.627060	-376.151794
67	0.66000000	-40.777119	1269.285278	-167.276016	-75.987030	1258.636108	-501.021576	-134.860397	1329.815063	-332.015686	-19.102385	1219.681519	-338.937897	-32.537964	998.364868	-46.944176	-229.852188	993.723877	-572.335693	89.473381	804.728088	-25.886170	-287.744781	794.255615	-647.622833	-36.815571	811.475403	-190.505508	13.076848	822.393127	-438.627960	-233.826828	822.984985	-356.061859	-225.434799	1153.809814	-319.906799	26.357689	1039.881348	-330.847839	-166.813095	484.256378	-128.394928	-176.632477	427.564026	-173.366440	-313.980988	314.872772	-142.001312	-467.118256	184.490921	-234.958282	-479.579956	225.355103	-286.750610	-427.679840	70.877022	-250.410965	72.359619	465.182526	-510.984680	63.203999	440.224518	-443.326019	80.026337	247.773270	-468.687714	49.515747	56.056114	-393.763031	-8.036178	50.600372	-348.109344	163.942001	40.522442	-375.353760
68	0.67000000	-25.770405	1270.647949	-167.466980	-58.629490	1259.945923	-501.157745	-119.033279	1331.372314	-332.655518	-3.263096	1221.112549	-338.928558	-20.914412	999.159668	-47.502148	-210.401611	993.947083	-573.268188	98.465836	803.873322	-25.526585	-265.075806	792.915833	-647.131683	-22.047028	811.863098	-191.654694	28.498707	824.115295	-439.399109	-218.892273	824.419800	-356.766968	-209.941910	1155.577515	-320.894165	41.755096	1041.139404	-330.577728	-138.824936	482.421356	-126.286118	-147.330856	425.539429	-171.009369	-284.835297	315.710754	-139.234634	-443.168030	192.275558	-232.545639	-454.290863	233.271805	-284.794922	-408.405060	76.920631	-245.701126	82.422821	464.712402	-511.180389	72.184227	439.946350	-443.562622	85.683289	247.017548	-468.606812	49.994461	56.129993	-393.497101	-7.691596	51.058453	-348.184601	164.187912	39.946594	-374.716949
69	0.68000000	-10.974395	1272.223511	-167.426132	-41.422379	1261.563721	-501.062378	-103.345192	1333.238770	-333.065460	12.378349	1222.819580	-338.685394	-9.579215	1000.094727	-48.077965	-190.714142	994.304016	-574.152100	107.015762	803.112000	-25.277995	-241.380478	791.497559	-646.564117	-7.484036	812.805115	-192.584015	43.675369	826.065735	-440.002686	-204.198410	826.478333	-357.719727	-194.615677	1157.656128	-321.763458	56.798607	1042.558472	-330.083679	-110.623688	481.536072	-124.636597	-117.629196	424.522156	-169.091736	-254.539444	316.346100	-136.906372	-416.889130	198.616516	-230.423782	-427.388428	239.128265	-283.366211	-384.969666	82.559608	-240.376282	90.771759	463.990906	-511.407471	79.775894	439.560516	-443.762878	89.827904	246.322708	-468.694153	50.289101	56.194412	-393.264374	-7.466908	51.394054	-348.241425	164.286270	39.714870	-374.227142
70	0.69000000	3.567653	1274.004395	-167.126404	-24.370152	1263.486450	-500.750366	-87.804832	1335.396973	-333.247528	27.807627	1224.805664	-338.197968	1.471660	1001.155640	-48.661972	-170.815002	994.814758	-574.973450	115.176987	802.479431	-25.116992	-216.728188	790.062439	-645.850800	6.930649	814.353699	-193.258698	58.628986	828.173828	-440.412567	-189.693405	829.078613	-358.943359	-179.445038	1160.006348	-322.554962	71.522072	1044.160767	-329.361725	-82.534302	481.712952	-123.493645	-87.803429	424.658905	-167.629730	-223.501617	316.960876	-135.054108	-388.466919	203.170166	-228.557663	-399.081146	242.677673	-282.357208	-357.437561	87.372673	-234.704636	97.689789	463.127075	-511.612091	86.144470	439.124573	-443.900116	92.766243	245.707489	-468.881958	50.471550	56.248451	-393.061890	-7.342304	51.661076	-348.285736	164.301178	39.682816	-373.860992
71	0.70000000	17.822458	1275.973022	-166.561523	-7.471433	1265.709229	-500.242767	-72.423271	1337.812134	-333.213531	43.021164	1227.057007	-337.470062	12.249921	1002.331848	-49.244770	-150.727921	995.500000	-575.721375	123.001862	802.001617	-25.013714	-191.184502	788.682495	-644.923157	21.252048	816.522095	-193.673935	73.377434	830.359192	-440.637939	-175.320938	832.109497	-360.415405	-164.417953	1162.573242	-323.302399	85.971924	1045.967407	-328.424347	-54.822754	482.955383	-122.848267	-58.111404	425.981110	-166.608566	-192.091721	317.761200	-133.667084	-358.138855	205.692734	-226.879044	-369.563538	243.812225	-281.592346	-326.072540	91.032639	-229.011292	103.571571	462.261322	-511.728668	91.489578	438.698395	-443.954773	94.832840	245.191772	-469.101562	50.599560	56.298008	-392.879272	-7.294060	51.905163	-348.327118	164.279434	39.748112	-373.591919
